<?xml version="1.0"?>
<svg version="1.1" xmlns="http://www.w3.org/2000/svg" width="400px" height="200px" style="border: dashed 2px #aaa"><path fill="#" d="M170.44,104.06l6.44,0l0,2.24l-6.44,0l0,6.58l2.8,0.56l0,1.68l-8.12,0l0-1.68l2.38-0.56l0-15.12l-2.38-0.56l0-1.54l5.32-0.14l8.54,0l0,4.62l-1.82,0l-0.7-2.38l-6.02,0l0,6.3z M193.9208,112.88l0.56-3.22l1.96,0l0,5.46l-13.58,0l0-1.68l2.38-0.56l0-15.12l-2.38-0.56l0-1.54l7.7-0.14l0,1.68l-2.38,0.56l0,15.12l5.74,0z M202.2816,115.12l0-1.68l2.8-0.56l0-15.12l-3.64,0l-0.7,2.8l-1.82,0l0-5.04l15.26,0l0,5.04l-1.82,0l-0.7-2.8l-3.64,0l0,15.12l2.8,0.56l0,1.68l-8.54,0z M220.0224,112.88l0-15.12l-2.38-0.56l0-1.54l5.32-0.14l3.5,0c5.46,0,8.82,3.36,8.82,9.52s-3.64,10.08-9.24,10.08l-8.4,0l0-1.68z M222.9624,112.88l3.22,0c3.5,0,5.88-2.38,5.88-7.7c0-5.18-2.24-7.42-5.74-7.42l-3.36,0l0,15.12z"/><path fill="#" d=""/></svg>
